<svg xmlns="http://www.w3.org/2000/svg" viewBox="0 0 918 980"><title>arrival</title><g id="Calque_2" data-name="Calque 2"><g id="Calque_1-2" data-name="Calque 1"><path d="M193,0h31a29.11,29.11,0,0,0,3.87.77c39.89,2.25,78.22,11.55,115.72,25C392.28,43.23,440.9,60.9,489.93,77.35,526.2,89.52,563.42,97,602.16,96.2c35.54-.7,66.84-11.11,92.62-35.9,16.33-15.69,32-32.06,47.93-48.18,3.2-3.24,6.18-6.72,10-10.95,4.75,15.15,9.17,28.74,13.28,42.42q71,236.87,141.9,473.75c3.18,10.6,6.7,21.11,10.06,31.66v4c-8.68,9.59-17,19.51-26.09,28.72-31.22,31.74-68.45,53-112.5,60.47-31.68,5.35-63.9,3.9-95.71.9-20.57-1.93-41-6.89-61.13-11.87-51.89-12.83-102.27-30.49-152.46-48.76-27.95-10.18-56-20.24-84.54-28.58-32.09-9.39-61.44-2.89-85.75,21-12.58,12.37-24.52,25.4-36.89,38-3.44,3.51-3.86,6.89-2.44,11.61q32.24,108.06,64,216.25c8.56,29.36,16.32,59,23.94,88.6,6.57,25.49-12.57,45.48-32.68,49.53-1.28.26-2.51.73-3.77,1.1H299c-1.26-.37-2.51-.8-3.78-1.1-11.3-2.74-20.86-8.32-26.82-18.46A79.37,79.37,0,0,1,261.2,943Q138.53,534.36,16.12,125.62C10.22,105.9,5.35,85.88,0,66V54c.61-1.5,1.31-3,1.81-4.51C11.79,18.62,53.89,8.37,75,30.94c5.57,6,10.18,12.84,15.46,19.6-.74.27-.39.22-.13,0,2.28-1.67,4.58-3.32,6.81-5.06,18.33-14.31,37.82-26.79,59.63-35C168.5,6.13,180.89,3.46,193,0ZM626.12,293.81c3.28,11.67,5.9,21.61,8.88,31.44,11.62,38.34,23.38,76.64,35,115,.85,2.83,2.11,4,5.15,3.88,12.45-.48,25.08.44,37.32-1.34A181.41,181.41,0,0,0,806.57,400c2.2-1.89,2.69-3.55,1.82-6.42-12.6-41.17-25-82.41-37.59-123.59-2.35-7.71-5.24-15.27-8.47-24.57C722.91,279.21,676.79,291.65,626.12,293.81ZM289.45,202.38c.71,3.22,1,5.3,1.63,7.3Q312.37,278.82,333.62,348c.88,2.85,2.39,3.84,5,4.58,13.93,3.91,28,7.43,41.63,12.21,31.7,11.1,63.16,22.89,94.74,34.31,4.56,1.65,9.3,2.85,15,4.56-1.06-4.85-1.59-8.45-2.63-11.9q-20.14-66.87-40.56-133.66c-.53-1.75-2.83-3.53-4.71-4.21q-31.89-11.52-63.93-22.68-38.37-13.41-76.81-26.59C297.86,203.38,294,203.19,289.45,202.38ZM227.23,560.61c9.3-9,17.87-17.31,26.54-25.56,21.22-20.19,45.09-35.73,74.29-41.67,9.29-1.89,18.67-3.34,28-5,3.53-.64,5.16-2.12,3.89-6.2-11.81-37.93-23.44-75.93-35.31-113.85a6.44,6.44,0,0,0-4.28-3.76c-6.25-.78-12.65-1.71-18.87-1.16a109.79,109.79,0,0,0-56.23,21.42c-20,14.83-36.21,33.82-52.06,52.94-1.34,1.6-1.4,5.06-.8,7.32,3,11.25,6.31,22.41,9.7,33.54C210.33,505.65,218.66,532.65,227.23,560.61ZM132.91,254.33c2.09-1.78,3.66-3,5.07-4.34,8.59-8.37,17.38-16.55,25.66-25.21,24.42-25.52,54-39.9,89.3-42.58,3-.23,5.94-.75,8.92-1,3.24-.31,3.7-2,2.85-4.82C253.29,139,242,101.58,230.4,64.25c-.5-1.61-2.73-3.72-4.26-3.82-13.43-.83-26.77-1.68-40,3-35.37,12.48-62.52,36.05-87.28,63.1-3.21,3.51-3.75,6.7-2.35,11.2,10.46,33.49,20.67,67,31,100.58C129.14,243.48,131,248.6,132.91,254.33Zm470.43,23c-.68-3.07-1-4.86-1.47-6.57-11.16-36.59-22.44-73.15-33.42-109.79-1.38-4.6-3.9-6.14-8.21-6.92-17-3.06-34.21-5.6-51-9.81-24.82-6.24-49.32-13.76-74-20.68-5.19-1.46-10.45-2.67-16.21-4.12.37,1.59.46,2.08.61,2.56,12.42,39.51,24.79,79,37.4,118.48.6,1.86,3,3.83,5,4.48,39.78,12.93,80.44,22.35,121.56,29.82C589.82,275.88,596.1,276.39,603.34,277.31ZM514.78,427.59a27.12,27.12,0,0,0,.44,3Q533,487.48,551,544.29c.6,1.88,3,3.9,4.94,4.53,16.78,5.36,33.59,10.7,50.54,15.5,27.2,7.71,54.55,14.89,82.74,18.12a86.7,86.7,0,0,0,9.17,0c-.93-3.45-1.47-5.7-2.15-7.92-10.39-34-21.22-67.92-31-102.12-2.85-10-6.54-14.36-17.82-15.36-38.21-3.39-75.35-12.78-112.14-23.43C528.72,431.73,522.1,429.75,514.78,427.59Z"/></g></g></svg>