<svg xmlns="http://www.w3.org/2000/svg" viewBox="0 0 980 982"><title>current_location</title><g id="Calque_2" data-name="Calque 2"><g id="Calque_1-2" data-name="Calque 1"><path d="M980,36q-38.29,87-76.6,173.89Q737.32,584.68,571.26,959.48c-5.19,11.74-13,19.29-25.26,22.52h-9c-1.85-.64-3.72-1.24-5.55-1.93-12-4.56-19.17-13.12-20.47-25.91q-10-98.64-19.8-197.3-9.54-95.42-19-190.85-2.48-24.84-5-49.7c-.09-.95-.29-1.9-.49-3.13-17.4-1.73-34.6-3.45-51.8-5.15L306.57,497.36q-47.47-4.67-94.94-9.3-49.47-4.86-98.91-9.77c-27.67-2.73-55.34-5.51-83-8.14-15.28-1.46-24.42-8.9-28.92-23.93A5.23,5.23,0,0,0,0,445V434c3.59-13.42,13.14-20.41,25.41-25.86Q473.11,209.29,920.66,10.05c8-3.56,16.22-6.71,24.34-10h9c6.89,2.32,14,4.58,18.38,10.82,3.06,4.36,5.12,9.43,7.62,14.18ZM560.42,862.5l1.17.17L912.18,68l-795,350.75c29.73,5.19,59.07,9.31,88.4,13.52q57.35,8.24,114.69,16.57,81.08,11.63,162.17,23.18a30.4,30.4,0,0,1,26.39,26.24c3.84,26.36,7.46,52.75,11.2,79.13q8.75,61.83,17.52,123.64,9.24,65.28,18.47,130.57Q558.2,847.08,560.42,862.5Z"/></g></g></svg>