<svg xmlns="http://www.w3.org/2000/svg" viewBox="0 0 423.38 423.38"><title>departure</title><g id="Calque_2" data-name="Calque 2"><g id="Calque_1-2" data-name="Calque 1"><path d="M191.73,367.18C116.29,352,71.53,307.24,56.36,231.79c-11,0-22.42,0-33.86,0a31.55,31.55,0,0,1-6.95-.49C5.81,229-.94,219.67.11,210.21c1.16-10.48,9.12-18.12,19.67-18.36s21-.06,31.5-.06h5.13c15-75.21,59.71-120,135.31-135.26V37.42c0-5.5-.06-11,0-16.5C191.83,9,200.67-.15,212,0s19.72,9.13,19.77,20.86c.05,12,0,24,0,35.68,75.15,15,120,59.62,135.24,135.05,1.13,0,2.9.19,4.66.19,10.33,0,20.67-.09,31,0,11.78.14,20.7,8.78,20.75,19.88.06,11.39-8.84,20-21,20.08-10.33.09-20.67.19-31-.06-3.82-.09-5.31.76-6,5C355.17,303,301.72,355.86,235.11,365.84c-1,.15-1.91.45-3.38.8,0,10.67.06,21.28,0,31.89a43,43,0,0,1-.81,9.9,19.66,19.66,0,0,1-20.95,14.84c-10.23-1.09-18-9.06-18.16-19.25C191.56,391.7,191.73,379.37,191.73,367.18Zm19.47-39.42c64,.25,116.31-51.61,116.49-115.53S276.15,96.25,212,95.82C148.79,95.4,96,147.55,95.75,210.7,95.46,275.22,147,327.51,211.2,327.76Z"/><path d="M211.25,278.91c-37.57-.28-66.89-30.39-66.6-68.4.27-36.59,30.93-66.14,68.26-65.79,36.52.35,66.13,30.76,65.9,67.69A67,67,0,0,1,211.25,278.91Z"/></g></g></svg>